# xmcd
#
# Track frame offsets:
#	150
#	17692
#	36860
#	51742
#	70857
#	91635
#	110597
#	130865
#	155155
#	175277
#
# Disc length: 2616 seconds
#
# Revision: 0
# Processed by: cddbd v1.4PL0 Copyright (c) Steve Scherf et al.
# Submitted via: dBpowerAMP V4.0
#
DISCID=870a360a
DTITLE=Rockin' Jake - Badmouth
DYEAR=1999
DGENRE=Blues
TTITLE0=(Let's Make A) Soul Connection
TTITLE1=Badmouth
TTITLE2=Call Me Rockin'
TTITLE3=Waves (Of Sadness)
TTITLE4=Just Can't Lose These Blues
TTITLE5=It's All Good
TTITLE6=Do Watcha Gotta Do
TTITLE7=The World Is A Ghetto
TTITLE8=Sure Thing
TTITLE9=Toulouse Serenade
EXTD=
EXTT0=
EXTT1=
EXTT2=
EXTT3=
EXTT4=
EXTT5=
EXTT6=
EXTT7=
EXTT8=
EXTT9=
PLAYORDER=
